<?xml version="1.0" encoding="utf-8"?>
<!-- Generator: Adobe Illustrator 16.0.0, SVG Export Plug-In . SVG Version: 6.00 Build 0)  -->
<!DOCTYPE svg PUBLIC "-//W3C//DTD SVG 1.1//EN" "http://www.w3.org/Graphics/SVG/1.1/DTD/svg11.dtd">
<svg version="1.1" id="圖層_1" focusable="false" xmlns="http://www.w3.org/2000/svg" xmlns:xlink="http://www.w3.org/1999/xlink"
	 x="0px" y="0px" width="1920px" height="1080px" viewBox="0 0 1920 1080" enable-background="new 0 0 1920 1080"
	 xml:space="preserve">
<path fill="#FFFFFF" d="M1110.852,244.088l-41.398,41.398c-10.025,10.026-9.861,26.334,0.365,36.155l170.265,163.515H512.813
	c-13.979,0-25.313,11.333-25.313,25.313v59.063c0,13.979,11.334,25.313,25.313,25.313h727.271L1069.82,758.358
	c-10.229,9.821-10.393,26.129-0.365,36.155l41.398,41.398c9.885,9.885,25.912,9.885,35.799,0l278.014-278.014
	c9.885-9.885,9.885-25.911,0-35.798l-278.018-278.012C1136.764,234.204,1120.736,234.204,1110.852,244.088L1110.852,244.088z"/>
</svg>
