<svg height='100px' width='100px'  fill="#ffffff" xmlns:dc="http://purl.org/dc/elements/1.1/" xmlns:cc="http://creativecommons.org/ns#" xmlns:rdf="http://www.w3.org/1999/02/22-rdf-syntax-ns#" xmlns:svg="http://www.w3.org/2000/svg" xmlns="http://www.w3.org/2000/svg" xmlns:sodipodi="http://sodipodi.sourceforge.net/DTD/sodipodi-0.dtd" xmlns:inkscape="http://www.inkscape.org/namespaces/inkscape" version="1.1" viewBox="0 0 16 16" x="0px" y="0px"><g transform="translate(0,-1036.3622)"><path style="color:#000000;font-style:normal;font-variant:normal;font-weight:normal;font-stretch:normal;font-size:medium;line-height:normal;font-family:sans-serif;text-indent:0;text-align:start;text-decoration:none;text-decoration-line:none;text-decoration-style:solid;text-decoration-color:#000000;letter-spacing:normal;word-spacing:normal;text-transform:none;direction:ltr;writing-mode:lr-tb;baseline-shift:baseline;text-anchor:start;white-space:normal;clip-rule:nonzero;display:inline;overflow:visible;visibility:visible;opacity:1;isolation:auto;mix-blend-mode:normal;color-interpolation:sRGB;color-interpolation-filters:linearRGB;solid-color:#000000;solid-opacity:1;fill:#ffffff;fill-opacity:1;fill-rule:nonzero;stroke:none;stroke-width:1;stroke-linecap:round;stroke-linejoin:round;stroke-miterlimit:4;stroke-dasharray:none;stroke-dashoffset:0;stroke-opacity:1;color-rendering:auto;image-rendering:auto;shape-rendering:auto;text-rendering:auto;enable-background:accumulate" d="m 3.99644,1037.3589 c -1.09935,0 -2,0.9007 -2,2 l 0,10 c 0,1.1006 0.89739,2.0983 2.04297,2 l 9.45703,0 c 0.27613,0 0.49997,-0.2239 0.5,-0.5 l 0,-10 c -3e-5,-0.2761 -0.22387,-0.5 -0.5,-0.5 l -9.5,0 c -0.56265,0 -1,-0.4373 -1,-1 0,-0.5626 0.43735,-1 1,-1 l 9.5,0 c 0.67616,0.01 0.67616,-1.0096 0,-1 z m -1,3.7187 c 0.2959,0.1735 0.63427,0.2813 1,0.2813 l 9,0 0,9 -9,0 c -0.0143,-6e-4 -0.0286,-6e-4 -0.043,0 -0.51036,0.046 -0.95703,-0.4385 -0.95703,-1 z m 7.71094,1.9747 -3.84961,4.1113 -1.54102,-1.7676 -0.73437,0.6406 2.25,2.5782 4.58593,-4.8985 z"></path></g><style type="text/css">
	.st0{fill:#ffffff;}
</style></svg>