<?xml version="1.0" encoding="utf-8"?>
<!-- Generator: Adobe Illustrator 16.0.0, SVG Export Plug-In . SVG Version: 6.00 Build 0)  -->
<!DOCTYPE svg PUBLIC "-//W3C//DTD SVG 1.1//EN" "http://www.w3.org/Graphics/SVG/1.1/DTD/svg11.dtd">
<svg version="1.1" id="圖層_1" xmlns="http://www.w3.org/2000/svg" xmlns:xlink="http://www.w3.org/1999/xlink" x="0px" y="0px"
	 width="264px" height="314.5px" viewBox="0 0 264 314.5" enable-background="new 0 0 264 314.5" xml:space="preserve">
<path fill="#FFFFFF" d="M264,304.5c0,5.522-4.478,10-10,10H10c-5.523,0-10-4.478-10-10V10C0,4.477,4.477,0,10,0h244
	c5.522,0,10,4.477,10,10V304.5z"/>
<title>QR Code</title>
<desc>https://localhost/demo/particle-forest/vr/</desc>
<g>
	<path d="M48.679,270.597l6.47,19.156l6.489-19.293c0.338-1.014,0.591-1.718,0.76-2.114c0.168-0.396,0.448-0.754,0.838-1.072
		s0.922-0.478,1.598-0.478c0.494,0,0.952,0.124,1.374,0.37c0.422,0.247,0.753,0.575,0.994,0.984c0.24,0.409,0.36,0.822,0.36,1.237
		c0,0.286-0.039,0.595-0.117,0.926s-0.175,0.656-0.292,0.975c-0.117,0.318-0.234,0.646-0.351,0.984l-6.918,18.669
		c-0.247,0.715-0.494,1.394-0.74,2.037c-0.247,0.643-0.533,1.208-0.857,1.695c-0.325,0.487-0.757,0.887-1.296,1.198
		c-0.54,0.312-1.199,0.468-1.978,0.468c-0.78,0-1.439-0.153-1.978-0.458c-0.54-0.305-0.975-0.708-1.306-1.208
		c-0.332-0.5-0.621-1.068-0.867-1.705c-0.247-0.637-0.494-1.313-0.741-2.027l-6.801-18.514c-0.117-0.337-0.237-0.669-0.36-0.993
		c-0.124-0.325-0.228-0.676-0.312-1.053s-0.126-0.694-0.126-0.955c0-0.662,0.266-1.267,0.799-1.813
		c0.533-0.545,1.202-0.818,2.007-0.818c0.987,0,1.686,0.303,2.095,0.906C47.832,268.307,48.25,269.271,48.679,270.597z"/>
	<path d="M79.685,283.634h-2.026v9.179c0,1.208-0.267,2.099-0.799,2.67s-1.228,0.857-2.085,0.857c-0.923,0-1.637-0.299-2.144-0.896
		c-0.506-0.598-0.76-1.475-0.76-2.631V270.83c0-1.247,0.279-2.15,0.838-2.709s1.461-0.838,2.709-0.838h9.413
		c1.299,0,2.41,0.056,3.333,0.166c0.922,0.11,1.754,0.334,2.494,0.672c0.896,0.377,1.689,0.916,2.377,1.618
		c0.688,0.701,1.211,1.517,1.569,2.445s0.536,1.913,0.536,2.952c0,2.131-0.601,3.833-1.803,5.106s-3.024,2.176-5.466,2.708
		c1.026,0.546,2.007,1.352,2.943,2.417c0.935,1.065,1.77,2.199,2.504,3.4c0.734,1.202,1.306,2.287,1.715,3.255
		s0.614,1.634,0.614,1.997c0,0.377-0.121,0.75-0.361,1.121c-0.24,0.37-0.568,0.662-0.984,0.877
		c-0.416,0.214-0.896,0.321-1.442,0.321c-0.65,0-1.195-0.153-1.637-0.458c-0.442-0.305-0.822-0.691-1.14-1.159
		s-0.75-1.156-1.296-2.066l-2.319-3.858c-0.832-1.416-1.575-2.494-2.231-3.235c-0.656-0.74-1.322-1.247-1.998-1.52
		C81.562,283.771,80.711,283.634,79.685,283.634z M82.998,271.629h-5.339v7.854h5.184c1.39,0,2.559-0.12,3.508-0.36
		c0.948-0.24,1.672-0.649,2.173-1.228c0.5-0.578,0.75-1.374,0.75-2.388c0-0.792-0.202-1.49-0.604-2.095
		c-0.403-0.604-0.961-1.056-1.676-1.354C86.317,271.772,84.985,271.629,82.998,271.629z"/>
	<path d="M132.301,287.278c0,1.728-0.444,3.28-1.335,4.657c-0.89,1.377-2.192,2.455-3.907,3.235c-1.715,0.779-3.749,1.169-6.1,1.169
		c-2.82,0-5.145-0.532-6.977-1.598c-1.299-0.767-2.355-1.79-3.167-3.069c-0.812-1.28-1.218-2.524-1.218-3.732
		c0-0.701,0.244-1.303,0.731-1.803s1.107-0.75,1.861-0.75c0.611,0,1.127,0.194,1.549,0.585c0.422,0.39,0.783,0.968,1.082,1.734
		c0.364,0.909,0.757,1.669,1.179,2.279c0.422,0.611,1.017,1.114,1.783,1.511s1.773,0.595,3.021,0.595c1.715,0,3.108-0.4,4.18-1.199
		s1.608-1.796,1.608-2.991c0-0.948-0.29-1.718-0.867-2.31c-0.578-0.591-1.325-1.042-2.241-1.354
		c-0.916-0.312-2.141-0.643-3.673-0.993c-2.053-0.48-3.771-1.043-5.155-1.686c-1.383-0.644-2.481-1.521-3.293-2.631
		c-0.812-1.111-1.218-2.491-1.218-4.142c0-1.572,0.429-2.969,1.286-4.189c0.857-1.222,2.098-2.16,3.722-2.816
		s3.534-0.984,5.729-0.984c1.754,0,3.271,0.218,4.55,0.653s2.342,1.013,3.187,1.734c0.844,0.721,1.462,1.478,1.851,2.271
		c0.391,0.792,0.585,1.565,0.585,2.318c0,0.689-0.243,1.31-0.73,1.861c-0.487,0.553-1.095,0.828-1.822,0.828
		c-0.663,0-1.166-0.165-1.51-0.497c-0.344-0.331-0.718-0.873-1.121-1.627c-0.52-1.078-1.144-1.92-1.871-2.523
		c-0.728-0.604-1.897-0.906-3.508-0.906c-1.494,0-2.699,0.328-3.615,0.984s-1.374,1.445-1.374,2.367
		c0,0.572,0.156,1.065,0.468,1.481c0.312,0.416,0.741,0.773,1.286,1.071c0.546,0.3,1.098,0.533,1.657,0.702s1.481,0.416,2.767,0.74
		c1.611,0.377,3.069,0.793,4.375,1.247c1.306,0.455,2.417,1.007,3.333,1.657c0.916,0.649,1.63,1.471,2.144,2.465
		S132.301,285.836,132.301,287.278z"/>
	<path d="M161.552,286.83c0,0.909-0.224,1.894-0.672,2.952s-1.153,2.098-2.114,3.118c-0.962,1.02-2.189,1.848-3.684,2.484
		s-3.234,0.955-5.223,0.955c-1.507,0-2.878-0.144-4.112-0.429c-1.234-0.286-2.354-0.73-3.361-1.335s-1.933-1.399-2.777-2.388
		c-0.753-0.896-1.396-1.899-1.929-3.011c-0.533-1.11-0.933-2.296-1.198-3.557c-0.267-1.26-0.4-2.598-0.4-4.015
		c0-2.299,0.335-4.358,1.004-6.177c0.669-1.819,1.627-3.375,2.875-4.668c1.247-1.292,2.708-2.276,4.385-2.952
		c1.676-0.676,3.462-1.014,5.358-1.014c2.313,0,4.372,0.462,6.178,1.384c1.806,0.923,3.189,2.063,4.151,3.42
		c0.961,1.358,1.442,2.641,1.442,3.85c0,0.662-0.234,1.247-0.702,1.754c-0.468,0.506-1.032,0.76-1.695,0.76
		c-0.74,0-1.296-0.176-1.666-0.526s-0.783-0.955-1.237-1.813c-0.754-1.416-1.641-2.475-2.66-3.177
		c-1.021-0.701-2.277-1.052-3.771-1.052c-2.377,0-4.271,0.903-5.681,2.709c-1.409,1.806-2.114,4.371-2.114,7.697
		c0,2.222,0.312,4.07,0.936,5.544c0.624,1.475,1.507,2.576,2.65,3.304c1.143,0.728,2.481,1.091,4.015,1.091
		c1.663,0,3.069-0.412,4.219-1.237c1.15-0.824,2.018-2.036,2.602-3.635c0.247-0.753,0.553-1.367,0.916-1.841
		c0.363-0.475,0.948-0.712,1.754-0.712c0.688,0,1.279,0.241,1.773,0.722S161.552,286.115,161.552,286.83z"/>
	<path d="M185.035,292.617l-1.364-3.585h-11.614l-1.364,3.663c-0.533,1.43-0.987,2.395-1.364,2.895s-0.994,0.75-1.852,0.75
		c-0.728,0-1.371-0.267-1.929-0.799c-0.56-0.533-0.838-1.137-0.838-1.813c0-0.39,0.064-0.792,0.194-1.208s0.344-0.994,0.644-1.734
		l7.308-18.553c0.208-0.532,0.458-1.173,0.75-1.92c0.293-0.747,0.604-1.367,0.936-1.861c0.331-0.493,0.767-0.893,1.306-1.198
		c0.539-0.305,1.205-0.458,1.998-0.458c0.805,0,1.478,0.153,2.017,0.458c0.539,0.306,0.975,0.698,1.306,1.18
		c0.331,0.48,0.61,0.997,0.838,1.549c0.228,0.553,0.517,1.289,0.867,2.212l7.464,18.436c0.585,1.403,0.877,2.423,0.877,3.06
		c0,0.662-0.276,1.27-0.828,1.822c-0.553,0.552-1.218,0.828-1.997,0.828c-0.455,0-0.845-0.081-1.17-0.244
		c-0.324-0.162-0.598-0.383-0.818-0.662s-0.458-0.708-0.711-1.286C185.435,293.569,185.217,293.06,185.035,292.617z
		 M173.576,284.686h8.536l-4.307-11.79L173.576,284.686z"/>
	<path d="M203.004,270.265l11.127,16.838v-16.993c0-1.104,0.237-1.933,0.712-2.485c0.474-0.552,1.113-0.828,1.919-0.828
		c0.832,0,1.487,0.276,1.969,0.828c0.48,0.553,0.721,1.381,0.721,2.485v22.469c0,2.508-1.039,3.762-3.118,3.762
		c-0.52,0-0.987-0.075-1.403-0.225c-0.415-0.149-0.806-0.386-1.169-0.711c-0.363-0.324-0.701-0.704-1.014-1.14
		c-0.312-0.436-0.623-0.88-0.935-1.335l-10.855-16.643v16.739c0,1.092-0.253,1.917-0.76,2.476s-1.156,0.838-1.948,0.838
		c-0.819,0-1.476-0.282-1.969-0.848c-0.494-0.565-0.74-1.387-0.74-2.466v-22.04c0-0.936,0.104-1.67,0.312-2.202
		c0.247-0.585,0.656-1.063,1.228-1.433s1.188-0.556,1.852-0.556c0.52,0,0.965,0.085,1.335,0.254s0.694,0.396,0.975,0.682
		c0.279,0.286,0.564,0.656,0.857,1.111C202.39,269.297,202.691,269.771,203.004,270.265z"/>
</g>
<g id="elements">
	<path d="M16,16h8v8h-8V16z M24,16h8v8h-8V16z M32,16h8v8h-8V16z M40,16h8v8h-8V16z M48,16h8v8h-8V16z M56,16h8v8h-8V16z M64,16h8v8
		h-8V16z M88,16h8v8h-8V16z M120,16h8v8h-8V16z M144,16h8v8h-8V16z M160,16h8v8h-8V16z M168,16h8v8h-8V16z M176,16h8v8h-8V16z
		 M192,16h8v8h-8V16z M200,16h8v8h-8V16z M208,16h8v8h-8V16z M216,16h8v8h-8V16z M224,16h8v8h-8V16z M232,16h8v8h-8V16z M240,16h8v8
		h-8V16z M16,24h8v8h-8V24z M64,24h8v8h-8V24z M80,24h8v8h-8V24z M88,24h8v8h-8V24z M104,24h8v8h-8V24z M112,24h8v8h-8V24z M128,24
		h8v8h-8V24z M136,24h8v8h-8V24z M144,24h8v8h-8V24z M152,24h8v8h-8V24z M160,24h8v8h-8V24z M192,24h8v8h-8V24z M240,24h8v8h-8V24z
		 M16,32h8v8h-8V32z M32,32h8v8h-8V32z M40,32h8v8h-8V32z M48,32h8v8h-8V32z M64,32h8v8h-8V32z M88,32h8v8h-8V32z M96,32h8v8h-8V32z
		 M104,32h8v8h-8V32z M168,32h8v8h-8V32z M176,32h8v8h-8V32z M192,32h8v8h-8V32z M208,32h8v8h-8V32z M216,32h8v8h-8V32z M224,32h8v8
		h-8V32z M240,32h8v8h-8V32z M16,40h8v8h-8V40z M32,40h8v8h-8V40z M40,40h8v8h-8V40z M48,40h8v8h-8V40z M64,40h8v8h-8V40z M80,40h8
		v8h-8V40z M88,40h8v8h-8V40z M104,40h8v8h-8V40z M112,40h8v8h-8V40z M120,40h8v8h-8V40z M128,40h8v8h-8V40z M136,40h8v8h-8V40z
		 M152,40h8v8h-8V40z M168,40h8v8h-8V40z M192,40h8v8h-8V40z M208,40h8v8h-8V40z M216,40h8v8h-8V40z M224,40h8v8h-8V40z M240,40h8v8
		h-8V40z M16,48h8v8h-8V48z M32,48h8v8h-8V48z M40,48h8v8h-8V48z M48,48h8v8h-8V48z M64,48h8v8h-8V48z M96,48h8v8h-8V48z M112,48h8
		v8h-8V48z M144,48h8v8h-8V48z M152,48h8v8h-8V48z M160,48h8v8h-8V48z M168,48h8v8h-8V48z M192,48h8v8h-8V48z M208,48h8v8h-8V48z
		 M216,48h8v8h-8V48z M224,48h8v8h-8V48z M240,48h8v8h-8V48z M16,56h8v8h-8V56z M64,56h8v8h-8V56z M80,56h8v8h-8V56z M96,56h8v8h-8
		V56z M128,56h8v8h-8V56z M136,56h8v8h-8V56z M144,56h8v8h-8V56z M152,56h8v8h-8V56z M192,56h8v8h-8V56z M240,56h8v8h-8V56z M16,64
		h8v8h-8V64z M24,64h8v8h-8V64z M32,64h8v8h-8V64z M40,64h8v8h-8V64z M48,64h8v8h-8V64z M56,64h8v8h-8V64z M64,64h8v8h-8V64z M80,64
		h8v8h-8V64z M96,64h8v8h-8V64z M112,64h8v8h-8V64z M128,64h8v8h-8V64z M144,64h8v8h-8V64z M160,64h8v8h-8V64z M176,64h8v8h-8V64z
		 M192,64h8v8h-8V64z M200,64h8v8h-8V64z M208,64h8v8h-8V64z M216,64h8v8h-8V64z M224,64h8v8h-8V64z M232,64h8v8h-8V64z M240,64h8v8
		h-8V64z M104,72h8v8h-8V72z M128,72h8v8h-8V72z M136,72h8v8h-8V72z M168,72h8v8h-8V72z M176,72h8v8h-8V72z M16,80h8v8h-8V80z
		 M24,80h8v8h-8V80z M32,80h8v8h-8V80z M40,80h8v8h-8V80z M48,80h8v8h-8V80z M64,80h8v8h-8V80z M72,80h8v8h-8V80z M80,80h8v8h-8V80z
		 M88,80h8v8h-8V80z M96,80h8v8h-8V80z M104,80h8v8h-8V80z M112,80h8v8h-8V80z M120,80h8v8h-8V80z M152,80h8v8h-8V80z M168,80h8v8
		h-8V80z M184,80h8v8h-8V80z M200,80h8v8h-8V80z M216,80h8v8h-8V80z M232,80h8v8h-8V80z M16,88h8v8h-8V88z M48,88h8v8h-8V88z M56,88
		h8v8h-8V88z M88,88h8v8h-8V88z M104,88h8v8h-8V88z M112,88h8v8h-8V88z M120,88h8v8h-8V88z M144,88h8v8h-8V88z M152,88h8v8h-8V88z
		 M160,88h8v8h-8V88z M168,88h8v8h-8V88z M176,88h8v8h-8V88z M184,88h8v8h-8V88z M192,88h8v8h-8V88z M200,88h8v8h-8V88z M208,88h8v8
		h-8V88z M240,88h8v8h-8V88z M32,96h8v8h-8V96z M48,96h8v8h-8V96z M64,96h8v8h-8V96z M88,96h8v8h-8V96z M112,96h8v8h-8V96z M128,96
		h8v8h-8V96z M136,96h8v8h-8V96z M176,96h8v8h-8V96z M192,96h8v8h-8V96z M200,96h8v8h-8V96z M208,96h8v8h-8V96z M32,104h8v8h-8V104z
		 M48,104h8v8h-8V104z M88,104h8v8h-8V104z M96,104h8v8h-8V104z M104,104h8v8h-8V104z M112,104h8v8h-8V104z M128,104h8v8h-8V104z
		 M136,104h8v8h-8V104z M144,104h8v8h-8V104z M168,104h8v8h-8V104z M176,104h8v8h-8V104z M184,104h8v8h-8V104z M192,104h8v8h-8V104z
		 M200,104h8v8h-8V104z M208,104h8v8h-8V104z M216,104h8v8h-8V104z M232,104h8v8h-8V104z M16,112h8v8h-8V112z M24,112h8v8h-8V112z
		 M56,112h8v8h-8V112z M64,112h8v8h-8V112z M72,112h8v8h-8V112z M80,112h8v8h-8V112z M88,112h8v8h-8V112z M120,112h8v8h-8V112z
		 M128,112h8v8h-8V112z M136,112h8v8h-8V112z M144,112h8v8h-8V112z M152,112h8v8h-8V112z M160,112h8v8h-8V112z M168,112h8v8h-8V112z
		 M216,112h8v8h-8V112z M224,112h8v8h-8V112z M16,120h8v8h-8V120z M48,120h8v8h-8V120z M80,120h8v8h-8V120z M88,120h8v8h-8V120z
		 M96,120h8v8h-8V120z M104,120h8v8h-8V120z M144,120h8v8h-8V120z M152,120h8v8h-8V120z M160,120h8v8h-8V120z M168,120h8v8h-8V120z
		 M176,120h8v8h-8V120z M184,120h8v8h-8V120z M192,120h8v8h-8V120z M200,120h8v8h-8V120z M208,120h8v8h-8V120z M240,120h8v8h-8V120z
		 M16,128h8v8h-8V128z M24,128h8v8h-8V128z M32,128h8v8h-8V128z M40,128h8v8h-8V128z M48,128h8v8h-8V128z M64,128h8v8h-8V128z
		 M72,128h8v8h-8V128z M96,128h8v8h-8V128z M112,128h8v8h-8V128z M120,128h8v8h-8V128z M128,128h8v8h-8V128z M136,128h8v8h-8V128z
		 M152,128h8v8h-8V128z M176,128h8v8h-8V128z M184,128h8v8h-8V128z M216,128h8v8h-8V128z M224,128h8v8h-8V128z M16,136h8v8h-8V136z
		 M24,136h8v8h-8V136z M96,136h8v8h-8V136z M104,136h8v8h-8V136z M192,136h8v8h-8V136z M232,136h8v8h-8V136z M16,144h8v8h-8V144z
		 M24,144h8v8h-8V144z M40,144h8v8h-8V144z M48,144h8v8h-8V144z M64,144h8v8h-8V144z M72,144h8v8h-8V144z M88,144h8v8h-8V144z
		 M96,144h8v8h-8V144z M120,144h8v8h-8V144z M128,144h8v8h-8V144z M136,144h8v8h-8V144z M144,144h8v8h-8V144z M152,144h8v8h-8V144z
		 M168,144h8v8h-8V144z M200,144h8v8h-8V144z M216,144h8v8h-8V144z M224,144h8v8h-8V144z M16,152h8v8h-8V152z M24,152h8v8h-8V152z
		 M40,152h8v8h-8V152z M56,152h8v8h-8V152z M80,152h8v8h-8V152z M88,152h8v8h-8V152z M96,152h8v8h-8V152z M104,152h8v8h-8V152z
		 M120,152h8v8h-8V152z M144,152h8v8h-8V152z M152,152h8v8h-8V152z M160,152h8v8h-8V152z M168,152h8v8h-8V152z M176,152h8v8h-8V152z
		 M192,152h8v8h-8V152z M200,152h8v8h-8V152z M208,152h8v8h-8V152z M224,152h8v8h-8V152z M240,152h8v8h-8V152z M16,160h8v8h-8V160z
		 M40,160h8v8h-8V160z M56,160h8v8h-8V160z M64,160h8v8h-8V160z M72,160h8v8h-8V160z M80,160h8v8h-8V160z M88,160h8v8h-8V160z
		 M96,160h8v8h-8V160z M120,160h8v8h-8V160z M128,160h8v8h-8V160z M136,160h8v8h-8V160z M144,160h8v8h-8V160z M184,160h8v8h-8V160z
		 M200,160h8v8h-8V160z M224,160h8v8h-8V160z M16,168h8v8h-8V168z M48,168h8v8h-8V168z M56,168h8v8h-8V168z M72,168h8v8h-8V168z
		 M104,168h8v8h-8V168z M128,168h8v8h-8V168z M136,168h8v8h-8V168z M160,168h8v8h-8V168z M176,168h8v8h-8V168z M184,168h8v8h-8V168z
		 M192,168h8v8h-8V168z M200,168h8v8h-8V168z M232,168h8v8h-8V168z M16,176h8v8h-8V176z M40,176h8v8h-8V176z M48,176h8v8h-8V176z
		 M56,176h8v8h-8V176z M64,176h8v8h-8V176z M96,176h8v8h-8V176z M104,176h8v8h-8V176z M112,176h8v8h-8V176z M120,176h8v8h-8V176z
		 M128,176h8v8h-8V176z M136,176h8v8h-8V176z M152,176h8v8h-8V176z M176,176h8v8h-8V176z M184,176h8v8h-8V176z M192,176h8v8h-8V176z
		 M200,176h8v8h-8V176z M208,176h8v8h-8V176z M224,176h8v8h-8V176z M232,176h8v8h-8V176z M240,176h8v8h-8V176z M80,184h8v8h-8V184z
		 M104,184h8v8h-8V184z M112,184h8v8h-8V184z M128,184h8v8h-8V184z M144,184h8v8h-8V184z M160,184h8v8h-8V184z M168,184h8v8h-8V184z
		 M176,184h8v8h-8V184z M208,184h8v8h-8V184z M216,184h8v8h-8V184z M224,184h8v8h-8V184z M232,184h8v8h-8V184z M240,184h8v8h-8V184z
		 M16,192h8v8h-8V192z M24,192h8v8h-8V192z M32,192h8v8h-8V192z M40,192h8v8h-8V192z M48,192h8v8h-8V192z M56,192h8v8h-8V192z
		 M64,192h8v8h-8V192z M80,192h8v8h-8V192z M88,192h8v8h-8V192z M112,192h8v8h-8V192z M120,192h8v8h-8V192z M136,192h8v8h-8V192z
		 M160,192h8v8h-8V192z M168,192h8v8h-8V192z M176,192h8v8h-8V192z M192,192h8v8h-8V192z M208,192h8v8h-8V192z M216,192h8v8h-8V192z
		 M224,192h8v8h-8V192z M16,200h8v8h-8V200z M64,200h8v8h-8V200z M88,200h8v8h-8V200z M96,200h8v8h-8V200z M136,200h8v8h-8V200z
		 M168,200h8v8h-8V200z M176,200h8v8h-8V200z M208,200h8v8h-8V200z M16,208h8v8h-8V208z M32,208h8v8h-8V208z M40,208h8v8h-8V208z
		 M48,208h8v8h-8V208z M64,208h8v8h-8V208z M80,208h8v8h-8V208z M120,208h8v8h-8V208z M128,208h8v8h-8V208z M136,208h8v8h-8V208z
		 M144,208h8v8h-8V208z M152,208h8v8h-8V208z M176,208h8v8h-8V208z M184,208h8v8h-8V208z M192,208h8v8h-8V208z M200,208h8v8h-8V208z
		 M208,208h8v8h-8V208z M224,208h8v8h-8V208z M232,208h8v8h-8V208z M16,216h8v8h-8V216z M32,216h8v8h-8V216z M40,216h8v8h-8V216z
		 M48,216h8v8h-8V216z M64,216h8v8h-8V216z M80,216h8v8h-8V216z M96,216h8v8h-8V216z M104,216h8v8h-8V216z M144,216h8v8h-8V216z
		 M160,216h8v8h-8V216z M168,216h8v8h-8V216z M216,216h8v8h-8V216z M224,216h8v8h-8V216z M240,216h8v8h-8V216z M16,224h8v8h-8V224z
		 M32,224h8v8h-8V224z M40,224h8v8h-8V224z M48,224h8v8h-8V224z M64,224h8v8h-8V224z M80,224h8v8h-8V224z M96,224h8v8h-8V224z
		 M128,224h8v8h-8V224z M136,224h8v8h-8V224z M144,224h8v8h-8V224z M152,224h8v8h-8V224z M160,224h8v8h-8V224z M184,224h8v8h-8V224z
		 M192,224h8v8h-8V224z M200,224h8v8h-8V224z M208,224h8v8h-8V224z M216,224h8v8h-8V224z M224,224h8v8h-8V224z M232,224h8v8h-8V224z
		 M16,232h8v8h-8V232z M64,232h8v8h-8V232z M80,232h8v8h-8V232z M96,232h8v8h-8V232z M104,232h8v8h-8V232z M112,232h8v8h-8V232z
		 M128,232h8v8h-8V232z M144,232h8v8h-8V232z M160,232h8v8h-8V232z M176,232h8v8h-8V232z M208,232h8v8h-8V232z M216,232h8v8h-8V232z
		 M232,232h8v8h-8V232z M16,240h8v8h-8V240z M24,240h8v8h-8V240z M32,240h8v8h-8V240z M40,240h8v8h-8V240z M48,240h8v8h-8V240z
		 M56,240h8v8h-8V240z M64,240h8v8h-8V240z M80,240h8v8h-8V240z M88,240h8v8h-8V240z M120,240h8v8h-8V240z M128,240h8v8h-8V240z
		 M152,240h8v8h-8V240z M160,240h8v8h-8V240z M168,240h8v8h-8V240z M200,240h8v8h-8V240z M208,240h8v8h-8V240z M224,240h8v8h-8V240z
		"/>
</g>
</svg>
